<svg width="24" height="16" viewBox="0 0 24 16" fill="none" xmlns="http://www.w3.org/2000/svg">
<g id="americanexpress-outline">
<path id="card_bg-2" fill-rule="evenodd" clip-rule="evenodd" d="M2 0H22C23.1046 0 24 0.89543 24 2V14C24 15.1046 23.1046 16 22 16H2C0.89543 16 0 15.1046 0 14V2C0 0.89543 0.89543 0 2 0ZM23 2C23 1.44772 22.5523 1 22 1H2C1.44772 1 1 1.44772 1 2V14C1 14.5523 1.44772 15 2 15H22C22.5523 15 23 14.5523 23 14V2Z" fill="black"/>
<g id="amex">
<path id="Path" d="M2.66988 5.19004L2.91988 5.80004H2.08988L2.33988 5.19004L2.49988 4.79004L2.66988 5.19004Z" fill="black"/>
<path id="Shape" fill-rule="evenodd" clip-rule="evenodd" d="M20.11 4.43957V3.67957H21.78V7.42957H20.22L19.75 6.69957V7.42957H17.51L17.3 6.86957H16.78L16.57 7.42957H15.26C14.8632 7.43757 14.4742 7.31843 14.15 7.08957V7.42957H11.94L11.41 6.74957V7.42957H3L2.73 6.82957H2.21L2 7.38957H1V6.84957H1.68L1.9 6.29957H3.12L3.34 6.84957H4.05L2.93 4.25957H2.12L1 6.84957V5.38957L1.73 3.67957H3.23L3.66 4.67957V3.67957H5.49L5.76 4.49957L6.05 3.67957H14.13V4.04957C14.4593 3.79745 14.8655 3.66675 15.28 3.67957H17.74L18.18 4.67957V3.67957H19.62L20.11 4.43957ZM6.74 6.84957H7.34L7.35 4.21957H6.35L5.85 5.70957L5.76 5.99957L5.66 5.74957L5.16 4.25957H4.16V6.84957H4.76V5.14957V4.74957L4.89 5.14957L5.48 6.84957H6.02L6.62 5.14957L6.74 4.74957V6.84957ZM9.91 4.84957H8.48V5.31957H9.9V5.85957H8.48V6.29957H9.94V6.84957H7.86V4.25957H9.94L9.91 4.84957ZM11.24 5.91957L12.01 6.84957L12.84 6.88957L11.98 5.88957C12.3941 5.84289 12.703 5.48611 12.69 5.06957C12.6914 4.8382 12.5939 4.61727 12.4219 4.46249C12.2499 4.30771 12.0199 4.23386 11.79 4.25957H10.37V6.84957H11V5.91957H11.24ZM13.56 6.84957H13V4.25957H13.62L13.56 6.84957ZM14.2938 6.47578C14.5181 6.72118 14.8376 6.8575 15.17 6.84957L15.45 6.25957H15.26C15.0683 6.27053 14.8818 6.19483 14.752 6.05337C14.6221 5.91191 14.5627 5.71963 14.59 5.52957C14.5692 5.34272 14.6316 5.15616 14.7606 5.01943C14.8896 4.88269 15.0723 4.8096 15.26 4.81957H15.93V4.25957H15.2C14.8587 4.24834 14.5295 4.38681 14.2988 4.63864C14.0681 4.89047 13.959 5.23053 14 5.56957C13.9623 5.8999 14.0695 6.23038 14.2938 6.47578ZM17.82 6.84957L17.6 6.29957H16.41L16.19 6.84957H15.52L16.63 4.25957H17.45L18.56 6.84957H17.82ZM20.38 6.84957H21.12V4.25957H20.5V5.94957L20.33 5.64957L19.41 4.25957H18.65V6.84957H19.26V5.09957L19.43 5.38957L20.38 6.84957ZM17.42 5.79957L17.17 5.18957L17 4.78957L16.84 5.18957L16.6 5.79957H17.42ZM11 4.78957H11.69L11.71 4.80957C11.8663 4.80948 11.9946 4.93333 12 5.08957C11.9948 5.2365 11.8769 5.35441 11.73 5.35957H11V4.78957Z" fill="black"/>
<path id="Shape_2" fill-rule="evenodd" clip-rule="evenodd" d="M23.0001 9.14934H21.6601C21.431 9.12336 21.2019 9.19744 21.0315 9.35259C20.861 9.50774 20.7657 9.72888 20.7701 9.95934C20.7564 10.1738 20.8392 10.3832 20.996 10.5302C21.1527 10.6773 21.3669 10.7466 21.5801 10.7193H22.1701C22.2371 10.7137 22.3034 10.7365 22.3529 10.7821C22.4023 10.8278 22.4303 10.8921 22.4301 10.9593C22.4306 11.0259 22.4023 11.0895 22.3525 11.1336C22.3026 11.1777 22.2361 11.198 22.1701 11.1893H20.8501V11.7393H22.1601C22.5248 11.7731 22.8676 11.5608 23.0001 11.2193V12.0893C22.7483 12.2458 22.4564 12.3257 22.1601 12.3193H14.9901L14.4601 11.6493V12.3193H12.8901V11.3793C12.6659 11.4447 12.4336 11.4784 12.2001 11.4793H11.9401V12.3193H9.62007L9.24007 11.7593L8.85007 12.3193H5.07007V8.56934H8.87007L9.26007 9.12934L9.64007 8.56934H23.0001V9.14934ZM22.7801 9.69934H21.6401C21.5774 9.69661 21.5163 9.71963 21.4709 9.76306C21.4256 9.80649 21.4 9.86656 21.4001 9.92934C21.3972 9.99383 21.4216 10.0566 21.4672 10.1022C21.5129 10.1478 21.5756 10.1722 21.6401 10.1693H22.2401C22.5618 10.1368 22.8681 10.3142 23.0001 10.6093V9.16934L22.7801 9.69934ZM7.74007 9.69934H6.29007V10.1693H7.71007V10.7193H6.29007V11.1893H7.74007V11.7393H5.66007V9.14934H7.74007V9.69934ZM9.25007 10.8693L9.87007 11.6993H10.6601L9.66007 10.3993L10.6601 9.10934H9.90007L9.27007 9.92934L8.63007 9.10934H7.85007L8.85007 10.4093L7.85007 11.6993H8.60007L9.25007 10.8693ZM12.1801 10.8493H11.4001V11.6993H10.7701V9.14934H12.2001C12.4392 9.12877 12.6755 9.21272 12.8481 9.37952C13.0206 9.54633 13.1125 9.77966 13.1001 10.0193C13.1066 10.2609 13.01 10.4938 12.8344 10.6598C12.6588 10.8259 12.4209 10.9093 12.1801 10.8893V10.8493ZM14.3401 10.7793L15.1101 11.6993L15.8601 11.7893L15.0001 10.7893C15.4096 10.6983 15.6869 10.316 15.6461 9.8985C15.6054 9.48095 15.2595 9.15946 14.8401 9.14934H13.4301V11.6993H14.0501V10.7793H14.3401ZM18.1101 9.69934H16.6701V10.1693H18.0901V10.7193H16.6701V11.1893H18.1301V11.7393H16.0001V9.14934H18.0901L18.1101 9.69934ZM18.4601 11.6993H19.7501L19.7701 11.7393C19.9939 11.7647 20.2181 11.6946 20.3875 11.5461C20.5569 11.3976 20.6559 11.1846 20.6601 10.9593C20.6706 10.7466 20.5865 10.54 20.4301 10.3953C20.2738 10.2505 20.0614 10.1824 19.8501 10.2093H19.2601C19.1939 10.2152 19.1284 10.1921 19.0805 10.1461C19.0326 10.1002 19.0069 10.0357 19.0101 9.96934C19.0098 9.90471 19.0368 9.84296 19.0843 9.7992C19.1319 9.75544 19.1957 9.73372 19.2601 9.73934H20.3301L20.5801 9.18934H19.2301C19.001 9.16336 18.7719 9.23744 18.6015 9.39259C18.431 9.54774 18.3357 9.76888 18.3401 9.99934C18.3264 10.2138 18.4092 10.4232 18.566 10.5702C18.7227 10.7173 18.9369 10.7866 19.1501 10.7593H19.7401C19.8071 10.7537 19.8734 10.7765 19.9229 10.8221C19.9723 10.8678 20.0003 10.9321 20.0001 10.9993C19.9661 11.091 19.8778 11.1512 19.7801 11.1493H18.4601V11.6993ZM14.7501 9.69934H14.0201V10.2693H14.7501C14.9601 10.2693 15.0701 10.1593 15.0701 9.98934C15.0701 9.91242 15.0395 9.83866 14.9851 9.78428C14.9307 9.72989 14.857 9.69934 14.7801 9.69934H14.7501ZM11.4001 9.69934H12.1101H12.1401C12.3168 9.69934 12.4601 9.8426 12.4601 10.0193C12.4601 10.1961 12.3168 10.3393 12.1401 10.3393H11.4001V9.69934Z" fill="black"/>
</g>
</g>
</svg>
