<svg width="24" height="16" viewBox="0 0 24 16" fill="none" xmlns="http://www.w3.org/2000/svg">
<g id="mastercard-outline">
<path id="card_bg-2" fill-rule="evenodd" clip-rule="evenodd" d="M2 0H22C23.1046 0 24 0.89543 24 2V14C24 15.1046 23.1046 16 22 16H2C0.89543 16 0 15.1046 0 14V2C0 0.89543 0.89543 0 2 0ZM23 2C23 1.44772 22.5523 1 22 1H2C1.44772 1 1 1.44772 1 2V14C1 14.5523 1.44772 15 2 15H22C22.5523 15 23 14.5523 23 14V2Z" fill="black"/>
<g id="mastercard">
<g id="Group" opacity="0.01">
<rect id="Rectangle" x="2.32007" y="1.59961" width="19.35" height="12.8" fill="black"/>
</g>
<path id="Path" d="M11.11 12.7296C8.88046 13.8566 6.16662 13.2737 4.59652 11.3306C3.02642 9.38742 3.02642 6.61168 4.59652 4.66854C6.16662 2.7254 8.88046 2.14251 11.11 3.26955C9.75355 4.46529 8.98356 6.19139 8.99999 7.99955C8.9966 9.80498 9.7643 11.5259 11.11 12.7296Z" fill="black"/>
<path id="Shape" fill-rule="evenodd" clip-rule="evenodd" d="M20.41 11.0801V11.2901H20.3V11.2301L20.36 11.0801H20.41ZM20.2786 11.1765L20.3 11.2301V11.1301L20.2786 11.1765ZM20.24 11.0801L20.2786 11.1765L20.24 11.2601L20.18 11.1301V11.0801H20.24ZM20.07 11.1201V11.2901H20V11.1201H20.07Z" fill="black"/>
<path id="Path_2" d="M20.5801 7.99986C20.5799 9.84056 19.6247 11.5494 18.0569 12.5137C16.489 13.4781 14.5331 13.5599 12.8901 12.7299C15.3948 10.515 15.741 6.73262 13.6801 4.09986C13.4421 3.79695 13.1741 3.51888 12.8801 3.26986C14.5239 2.43502 16.4834 2.51434 18.0542 3.47931C19.6251 4.44429 20.5817 6.15625 20.5801 7.99986Z" fill="black"/>
<path id="Path_3" d="M12.0002 12.1701C10.7194 11.1654 9.97144 9.62787 9.97144 8.00008C9.97144 6.37229 10.7194 4.83478 12.0002 3.83008C13.2774 4.83698 14.0228 6.37368 14.0228 8.00008C14.0228 9.62647 13.2774 11.1632 12.0002 12.1701Z" fill="black"/>
</g>
</g>
</svg>
