<svg width="24" height="16" viewBox="0 0 24 16" fill="none" xmlns="http://www.w3.org/2000/svg">
<g id="paypal-outline">
<path id="card_bg-2" fill-rule="evenodd" clip-rule="evenodd" d="M2 0H22C23.1046 0 24 0.89543 24 2V14C24 15.1046 23.1046 16 22 16H2C0.89543 16 0 15.1046 0 14V2C0 0.89543 0.89543 0 2 0ZM23 2C23 1.44772 22.5523 1 22 1H2C1.44772 1 1 1.44772 1 2V14C1 14.5523 1.44772 15 2 15H22C22.5523 15 23 14.5523 23 14V2Z" fill="black"/>
<g id="paypal">
<path id="Path" d="M16.1702 7.75004C15.9725 9.30502 14.5563 10.4085 13.0002 10.22H12.7502C12.56 10.2227 12.3994 10.3621 12.3702 10.55V10.66L12.0702 12.59V12.67C12.0403 12.8617 11.8741 13.0023 11.6802 13H10.0502C9.98155 13.0011 9.91606 12.9714 9.87157 12.9192C9.82707 12.867 9.80822 12.7976 9.82016 12.73L9.95016 11.89L10.6702 7.33004L10.9402 7.70004L10.1702 12.7H11.7002V12.63L12.0002 10.6V10.5C12.03 10.3288 12.1184 10.1733 12.2502 10.06C12.381 9.94697 12.5473 9.88328 12.7202 9.88004H13.0002C13.3366 9.8812 13.672 9.8443 14.0002 9.77004C14.2931 9.69588 14.5707 9.57062 14.8202 9.40004C15.0624 9.22249 15.2664 8.99804 15.4202 8.74004C15.6077 8.41159 15.7363 8.05284 15.8002 7.68004C15.8694 7.37511 15.8863 7.06063 15.8502 6.75004C15.8136 6.51428 15.7133 6.29298 15.5602 6.11004C15.4875 6.02425 15.3993 5.95299 15.3002 5.90004C15.3002 5.84004 15.3002 5.78004 15.3002 5.72004V5.54004C15.4665 5.62535 15.6156 5.74061 15.7402 5.88004C16.175 6.39838 16.3349 7.09382 16.1702 7.75004Z" fill="black"/>
<path id="Path_2" d="M15.0002 5.37057H14.8102H14.6002C14.3356 5.32883 14.068 5.30876 13.8002 5.31057H11.3302C11.2739 5.30142 11.2165 5.30142 11.1602 5.31057C11.0462 5.36614 10.9674 5.47492 10.9502 5.60057L10.4302 8.88057V8.98057C10.4557 8.7628 10.6409 8.59908 10.8602 8.60057H11.7702C13.5459 8.80657 15.1563 7.54413 15.3802 5.77057V5.59057L15.0402 5.45057L15.0002 5.37057Z" fill="black"/>
<path id="Path_3" d="M15.4001 5.5404C15.2975 5.48759 15.1904 5.44408 15.0801 5.4104C15.1316 5.14622 15.1316 4.87458 15.0801 4.6104C15.0165 4.37865 14.8922 4.16806 14.7201 4.0004C14.138 3.49989 13.3721 3.26758 12.6101 3.3604H9.50006H9.43006C9.42061 3.38277 9.42061 3.40802 9.43006 3.4304L8.11006 11.5504H10.0001L9.95006 11.8904H8.00006C7.9227 11.8884 7.84992 11.8533 7.80019 11.794C7.75046 11.7347 7.72856 11.6569 7.74006 11.5804L9.03006 3.3804C9.06569 3.15171 9.26898 2.98735 9.50006 3.0004H12.6101C13.4766 2.90433 14.3437 3.17643 15.0001 3.7504C15.4152 4.24715 15.5643 4.91416 15.4001 5.5404Z" fill="black"/>
</g>
</g>
</svg>
