<svg width="24" height="16" viewBox="0 0 24 16" fill="none" xmlns="http://www.w3.org/2000/svg">
<g id="visa-outline">
<path id="card_bg-2" fill-rule="evenodd" clip-rule="evenodd" d="M2 0H22C23.1046 0 24 0.89543 24 2V14C24 15.1046 23.1046 16 22 16H2C0.89543 16 0 15.1046 0 14V2C0 0.89543 0.89543 0 2 0ZM23 2C23 1.44772 22.5523 1 22 1H2C1.44772 1 1 1.44772 1 2V14C1 14.5523 1.44772 15 2 15H22C22.5523 15 23 14.5523 23 14V2Z" fill="black"/>
<path id="visa-logo" fill-rule="evenodd" clip-rule="evenodd" d="M15.1701 8.80984C15.1701 8.07867 14.5667 7.76056 14.0852 7.50678C13.7634 7.33712 13.4961 7.19621 13.5001 6.97984C13.5001 6.80984 13.6601 6.62984 14.0001 6.58984C14.4042 6.55169 14.8112 6.62067 15.1801 6.78984L15.3901 5.78984C15.0346 5.65879 14.6589 5.5911 14.2801 5.58984C13.0901 5.58984 12.2801 6.21984 12.2801 7.11984C12.2801 7.77333 12.8683 8.1131 13.3167 8.37212L13.3301 8.37984C13.7801 8.63984 13.9501 8.74984 13.9501 8.94984C13.9501 9.14984 13.5801 9.39984 13.2401 9.39984C12.8103 9.41891 12.383 9.32586 12.0001 9.12984L11.7801 10.1298C12.2066 10.2847 12.6564 10.3659 13.1101 10.3698C14.3701 10.3698 15.1901 9.74984 15.1901 8.78984L15.1701 8.80984ZM11.9301 5.68984L10.9301 10.3198H9.7401L10.7401 5.68984H11.9301ZM16.9301 8.68984L17.5601 6.94984L18.0001 8.67984L16.9301 8.68984ZM19.3701 10.3298H18.2701L18.1001 9.63984H16.5701L16.3201 10.3298H15.0601L16.8601 6.03984C16.9453 5.83351 17.1468 5.69917 17.3701 5.69984H18.3701L19.3701 10.3298ZM8.2801 10.3198L10.2201 5.68984H9.0001L7.6601 8.83984L7.1501 6.16984C7.11057 5.89592 6.87686 5.69195 6.6001 5.68984H4.6001V5.82984C4.98694 5.91721 5.36266 6.04804 5.7201 6.21984C5.87563 6.30164 5.98051 6.45521 6.0001 6.62984L7.0001 10.3198H8.2801Z" fill="black"/>
</g>
</svg>
